HIERARCHY
ROOT Hips
{
 OFFSET 0.000000 0.000000 0.000000
 CHANNELS 6 Xposition Yposition Zposition Yrotation Xrotation Zrotation
 JOINT Chest
 {
  OFFSET 0.000000 9.585900 0.002600
  CHANNELS 3 Yrotation Xrotation Zrotation
  JOINT Chest2
  {
   OFFSET 0.000000 9.601200 -0.005300
   CHANNELS 3 Yrotation Xrotation Zrotation
   JOINT Chest3
   {
    OFFSET 0.000000 9.561800 0.000000
    CHANNELS 3 Yrotation Xrotation Zrotation
    JOINT Chest4
    {
     OFFSET 0.000000 9.552100 0.000000
     CHANNELS 3 Yrotation Xrotation Zrotation
     JOINT Neck
     {
      OFFSET 0.000000 14.453000 0.000000
      CHANNELS 3 Yrotation Xrotation Zrotation
      JOINT Head
      {
       OFFSET 0.000000 8.936500 -0.011300
       CHANNELS 3 Yrotation Xrotation Zrotation
       End Site
       {
        OFFSET 0.000000 17.073600 -0.006000
       }
      }
     }
     JOINT RightCollar
     {
      OFFSET -2.921100 9.558500 0.000000
      CHANNELS 3 Yrotation Xrotation Zrotation
      JOINT RightShoulder
      {
       OFFSET -13.519700 0.000000 0.000000
       CHANNELS 3 Yrotation Xrotation Zrotation
       JOINT RightElbow
       {
        OFFSET 0.000000 -29.696600 0.000000
        CHANNELS 3 Yrotation Xrotation Zrotation
        JOINT RightWrist
        {
         OFFSET 0.000000 -24.004700 0.000000
         CHANNELS 3 Yrotation Xrotation Zrotation
         End Site
         {
          OFFSET 0.000000 -17.728500 0.000000
         }
        }
       }
      }
     }
     JOINT LeftCollar
     {
      OFFSET 2.921100 9.558500 0.000000
      CHANNELS 3 Yrotation Xrotation Zrotation
      JOINT LeftShoulder
      {
       OFFSET 13.519700 0.000000 0.000000
       CHANNELS 3 Yrotation Xrotation Zrotation
       JOINT LeftElbow
       {
        OFFSET 0.000000 -29.696600 0.000000
        CHANNELS 3 Yrotation Xrotation Zrotation
        JOINT LeftWrist
        {
         OFFSET 0.000000 -24.004700 0.000000
         CHANNELS 3 Yrotation Xrotation Zrotation
         End Site
         {
          OFFSET 0.000000 -17.728500 0.000000
         }
        }
       }
      }
     }
    }
   }
  }
 }
 JOINT RightHip
 {
  OFFSET -7.771700 -0.012900 -0.001300
  CHANNELS 3 Yrotation Xrotation Zrotation
  JOINT RightKnee
  {
   OFFSET 0.000000 -40.869800 0.001200
   CHANNELS 3 Yrotation Xrotation Zrotation
   JOINT RightAnkle
   {
    OFFSET 0.000000 -39.717900 0.002100
    CHANNELS 3 Yrotation Xrotation Zrotation
    JOINT RightToe
    {
     OFFSET 0.000000 -4.965400 11.033500
     CHANNELS 3 Yrotation Xrotation Zrotation
     End Site
     {
      OFFSET 0.000000 -1.423100 5.872300
     }
    }
   }
  }
 }
 JOINT LeftHip
 {
  OFFSET 7.771700 -0.012900 -0.001300
  CHANNELS 3 Yrotation Xrotation Zrotation
  JOINT LeftKnee
  {
   OFFSET 0.000000 -40.869800 0.001200
   CHANNELS 3 Yrotation Xrotation Zrotation
   JOINT LeftAnkle
   {
    OFFSET 0.000000 -39.717900 0.002100
    CHANNELS 3 Yrotation Xrotation Zrotation
    JOINT LeftToe
    {
     OFFSET 0.000000 -4.965400 11.033500
     CHANNELS 3 Yrotation Xrotation Zrotation
     End Site
     {
      OFFSET 0.000000 -1.423100 5.872300
     }
    }
   }
  }
 }
}
MOTION
Frames: 16
Frame Time: 0.008333
-35.606347 61.403523 21.879379 166.175018 -9.629467 2.829607 5.139095 9.478555 1.593507 0.330600 0.622308 0.107007 0.565707 1.068511 0.188807 4.770134 8.669565 1.871129 -4.704849 17.148645 -2.088069 -4.531097 -7.593568 -1.145612 7.082887 -2.282764 -4.587833 21.493864 -16.068135 -25.436822 30.077933 -29.646684 -10.727135 3.211128 1.249719 -45.173899 -10.939359 -7.500140 -2.956571 -19.785164 -11.885611 16.474861 -56.384735 -34.522147 24.863956 -0.773078 -12.585796 39.596191 -2.593476 -59.309522 -2.417676 -26.475391 74.517146 -24.493138 -0.023326 -9.363248 -1.350658 0.310926 -0.534761 0.147443 21.137434 -55.147345 -12.393707 27.271969 69.626084 23.966951 -17.864915 -15.044356 4.346174 0.044891 0.487185 0.000216
-35.588809 61.407562 21.879619 166.143961 -9.667626 2.842966 5.145261 9.441051 1.583246 0.332297 0.633949 0.108766 0.580797 1.118890 0.188429 4.756627 8.588832 1.873481 -4.537527 17.299674 -2.071437 -4.354219 -7.436448 -1.165589 7.113776 -2.179548 -4.557710 21.159520 -16.108649 -25.131323 29.999363 -29.726675 -11.069257 3.346298 1.225279 -44.862776 -10.959707 -7.459391 -3.029754 -19.635461 -11.938450 16.323091 -56.468769 -34.362755 24.915903 -0.787442 -12.626045 39.560987 -2.742736 -59.268686 -2.222392 -26.565850 74.483589 -24.685465 -0.062163 -9.364518 -1.357576 0.347697 -0.533485 0.162069 21.145217 -55.105022 -12.383846 27.280189 69.616623 24.018646 -17.995882 -15.023455 4.342977 -0.018481 0.484646 -0.021664
-35.572445 61.412208 21.881387 166.125253 -9.694000 2.864030 5.136660 9.402939 1.567147 0.326777 0.613121 0.109042 0.587574 1.134421 0.185370 4.756314 8.551606 1.885608 -4.364337 17.464597 -2.058090 -4.170827 -7.263882 -1.190559 7.166273 -2.068553 -4.496764 20.765375 -16.150663 -24.804465 29.942564 -29.807739 -11.456042 3.509100 1.196908 -44.522337 -10.974787 -7.416797 -3.107308 -19.522369 -11.985982 16.189726 -56.517853 -34.202410 24.940428 -0.800749 -12.658531 39.526565 -2.872792 -59.236490 -2.058837 -26.651476 74.447819 -24.865055 -0.102029 -9.376436 -1.363531 0.392100 -0.521771 0.175588 21.160497 -55.067890 -12.396946 27.296039 69.603827 24.046815 -18.038439 -14.998119 4.366754 -0.096652 0.477577 -0.058097
-35.555115 61.417795 21.881917 166.099321 -9.725409 2.885141 5.136728 9.364530 1.554357 0.325992 0.608476 0.109508 0.567643 1.068694 0.189127 4.779621 8.572688 1.897940 -4.188954 17.645326 -2.044784 -3.985762 -7.073522 -1.216193 7.205409 -1.961435 -4.426160 20.332865 -16.197552 -24.427523 29.909639 -29.889839 -11.887708 3.701588 1.168512 -44.156015 -10.992213 -7.371579 -3.181715 -19.456730 -12.032814 16.079772 -56.527698 -34.034828 24.929827 -0.776580 -12.708302 39.517918 -2.902026 -59.199304 -1.997407 -26.748185 74.423011 -24.993915 -0.099658 -9.380782 -1.376627 0.404174 -0.519475 0.180946 21.182681 -55.024569 -12.413625 27.313158 69.591876 24.088353 -18.034569 -14.983396 4.371321 -0.134237 0.471531 -0.083231
-35.530837 61.423447 21.884583 166.081556 -9.749951 2.861990 5.139626 9.309868 1.583337 0.325430 0.603252 0.109965 0.561149 1.038498 0.191504 4.794181 8.551650 1.909240 -4.013324 17.842717 -2.029018 -3.801644 -6.864180 -1.239391 7.220542 -1.859562 -4.348760 19.865505 -16.250756 -23.995580 29.909270 -29.973206 -12.362357 3.909874 1.139210 -43.780611 -11.013730 -7.323728 -3.244374 -19.448414 -12.082150 15.996396 -56.501959 -33.853727 24.887620 -0.736811 -12.754684 39.496194 -3.004781 -59.164463 -1.858278 -26.909375 74.387766 -25.172327 -0.073438 -9.373757 -1.396900 0.408857 -0.529494 0.183827 21.148193 -55.001118 -12.380864 27.352022 69.576166 24.152147 -17.871865 -15.010127 4.346914 -0.080064 0.483808 -0.084992
-35.505041 61.429439 21.886358 166.063477 -9.776923 2.830439 5.147683 9.252540 1.619967 0.325005 0.597416 0.110384 0.565813 1.079355 0.191701 4.801852 8.452016 1.917245 -3.838650 18.055268 -2.011662 -3.619428 -6.637264 -1.260866 7.220048 -1.748192 -4.277717 19.349797 -16.328260 -23.506616 29.942060 -30.057767 -12.864033 4.123728 1.109115 -43.420337 -11.030886 -7.274243 -3.293784 -19.504859 -12.135865 15.938083 -56.451466 -33.655883 24.821859 -0.757797 -12.802742 39.427466 -3.175870 -59.120715 -1.644276 -26.968754 74.351591 -25.296578 -0.061741 -9.374142 -1.401460 0.387991 -0.529783 0.180590 21.103353 -54.979228 -12.328907 27.410144 69.561461 24.232652 -17.714852 -15.042688 4.326466 -0.032323 0.497547 -0.085545
-35.486291 61.435954 21.884469 166.028809 -9.810029 2.846235 5.168085 9.200589 1.613054 0.324651 0.590896 0.110915 0.561642 1.044283 0.192674 4.821900 8.420587 1.932892 -3.665273 18.279652 -1.995639 -3.438844 -6.396308 -1.283579 7.208625 -1.601960 -4.243370 18.773044 -16.463997 -22.951340 30.005831 -30.141224 -13.366830 4.334381 1.079778 -43.099308 -11.038142 -7.224888 -3.334889 -19.617992 -12.196288 15.899076 -56.387421 -33.439060 24.733059 -0.750230 -12.836165 39.339870 -3.217513 -59.074068 -1.551421 -27.019086 74.321746 -25.396678 -0.073481 -9.386308 -1.406551 0.396656 -0.517306 0.184638 21.131107 -54.940600 -12.320442 27.392127 69.565455 24.251540 -17.761963 -15.029249 4.334324 -0.090342 0.488829 -0.107446
-35.468465 61.441859 21.882601 165.988736 -9.837673 2.866390 5.193153 9.139066 1.602431 0.324338 0.583810 0.111556 0.559689 1.005697 0.194223 4.842378 8.386084 1.950552 -3.490533 18.510125 -1.982698 -3.256504 -6.147536 -1.310045 7.158282 -1.570680 -4.072631 18.216529 -16.468632 -22.463959 30.104538 -30.216124 -13.851821 4.530378 1.051498 -42.841190 -11.032356 -7.180380 -3.370430 -19.765305 -12.267938 15.870877 -56.327041 -33.201942 24.619166 -0.742435 -12.861675 39.225544 -3.279788 -59.031942 -1.430393 -27.071287 74.283387 -25.517519 -0.097368 -9.399640 -1.415279 0.420880 -0.499643 0.196586 21.161716 -54.897938 -12.317437 27.345432 69.560381 24.251968 -17.820062 -15.036401 4.335967 -0.162694 0.503308 -0.134658
-35.441762 61.447173 21.877856 165.908064 -9.890885 2.844267 5.262722 9.097776 1.644096 0.324005 0.576332 0.112278 0.559286 0.993110 0.195476 4.862627 8.320667 1.968671 -3.313178 18.739796 -1.975267 -3.070313 -5.898469 -1.343181 7.091787 -1.501459 -3.938577 17.627465 -16.545982 -21.941935 30.251851 -30.275285 -14.312795 4.698431 1.030067 -42.659863 -11.011688 -7.143380 -3.402821 -19.928575 -12.355651 15.845137 -56.283342 -32.943393 24.482234 -0.738208 -12.877744 39.083702 -3.289129 -58.968759 -1.323895 -27.115609 74.268218 -25.569579 -0.055896 -9.376534 -1.421770 0.385848 -0.520304 0.187036 21.123877 -54.839730 -12.212780 27.275052 69.554603 24.253271 -17.734694 -15.117836 4.250611 -0.055120 0.555799 -0.101335
-35.419343 61.449782 21.880174 165.885606 -9.899342 2.824897 5.272668 9.009366 1.670885 0.323460 0.568666 0.113122 0.558520 0.980262 0.197021 4.880802 8.253725 1.988898 -3.134125 18.962601 -1.976135 -2.880609 -5.655771 -1.385563 7.022015 -1.407801 -3.829895 17.021434 -16.680717 -21.414301 30.450510 -30.310281 -14.746151 4.835679 1.019856 -42.548150 -10.974886 -7.114585 -3.434197 -20.094197 -12.460720 15.813793 -56.265690 -32.668000 24.326091 -0.741306 -12.883329 38.919236 -3.340783 -58.957140 -1.236530 -27.140508 74.260911 -25.604337 -0.020912 -9.361572 -1.425845 0.351906 -0.534087 0.172653 21.080192 -54.834017 -12.149324 27.266288 69.552535 24.244619 -17.567490 -15.155955 4.225450 0.022965 0.572375 -0.083857
-35.400027 61.451010 21.880440 165.848150 -9.917503 2.826988 5.290321 8.933491 1.681775 0.322608 0.561098 0.114080 0.557213 0.967463 0.198721 4.894994 8.187551 2.010734 -2.953789 19.175322 -1.984845 -2.687812 -5.423017 -1.436519 6.950773 -1.315715 -3.722225 16.436144 -16.843349 -20.916677 30.695043 -30.313029 -15.151615 4.950589 1.025386 -42.479464 -10.919956 -7.092307 -3.463394 -20.240723 -12.585740 15.767829 -56.289907 -32.383123 24.154250 -0.751701 -12.874057 38.738883 -3.397247 -58.942296 -1.141271 -27.144510 74.259799 -25.646801 -0.000418 -9.350248 -1.430246 0.332460 -0.546856 0.158936 21.066748 -54.814267 -12.095358 27.237355 69.556876 24.217511 -17.502895 -15.173755 4.215135 0.048673 0.580093 -0.074722
-35.382414 61.450306 21.880713 165.792642 -9.937678 2.839429 5.326602 8.885129 1.684853 0.327553 0.581414 0.112476 0.544007 0.904124 0.206164 4.907093 8.123330 2.034616 -2.775013 19.376409 -1.999714 -2.495245 -5.202024 -1.493699 6.879964 -1.230023 -3.611552 15.893065 -17.024764 -20.461776 30.987823 -30.281489 -15.537781 5.049649 1.058009 -42.428000 -10.854732 -7.073043 -3.489738 -20.346358 -12.732404 15.699439 -56.364950 -32.088917 23.977100 -0.775291 -12.847884 38.544296 -3.478133 -58.947682 -1.009788 -27.147428 74.279763 -25.720084 -0.000330 -9.300796 -1.437412 0.326482 -0.598032 0.154012 21.095534 -54.791395 -12.069126 27.200293 69.565978 24.216037 -17.501160 -15.187172 4.178712 0.095095 0.584729 -0.048063
-35.362049 61.447810 21.879964 165.713935 -9.974454 2.837873 5.398938 8.900252 1.705264 0.321654 0.553750 0.115205 0.526881 0.842244 0.215581 4.917954 8.060970 2.061016 -2.600439 19.564360 -2.019769 -2.305923 -4.994555 -1.555562 6.811377 -1.154476 -3.497098 15.413890 -17.206919 -20.053905 31.309919 -30.217718 -15.911107 5.139050 1.126081 -42.378591 -10.785608 -7.052683 -3.513208 -20.403505 -12.895580 15.604903 -56.492553 -31.783939 23.818285 -0.826123 -12.791447 38.331623 -3.502076 -58.933871 -0.907277 -27.182002 74.300063 -25.788133 0.026562 -9.251590 -1.442068 0.301312 -0.648231 0.140985 21.113134 -54.757573 -12.005270 27.195251 69.574776 24.241100 -17.466119 -15.214916 4.136501 0.108352 0.598688 -0.020123
-35.343654 61.443125 21.881311 165.649423 -10.006220 2.837332 5.436123 8.841530 1.729489 0.291537 0.469071 0.125341 0.543385 0.906059 0.208225 4.926397 8.000745 2.089839 -2.429003 19.739010 -2.044091 -2.118852 -4.800960 -1.621331 6.750360 -1.089299 -3.379468 15.017942 -17.373279 -19.694674 31.616206 -30.128213 -16.263414 5.222930 1.234254 -42.332119 -10.708151 -7.027529 -3.531777 -20.413680 -13.067302 15.481845 -56.656986 -31.472360 23.689672 -0.891952 -12.699331 38.093081 -3.486358 -58.919255 -0.857098 -27.250048 74.307547 -25.861321 0.068886 -9.220703 -1.450638 0.272865 -0.675164 0.131804 21.103735 -54.735103 -11.931859 27.219834 69.577858 24.303529 -17.549711 -15.222240 4.105145 0.202137 0.605060 -0.000116
-35.321634 61.436027 21.887596 165.630863 -10.026869 2.793921 5.384248 8.692312 1.786804 0.307587 0.509150 0.122091 0.550475 0.921406 0.208122 4.932517 7.945037 2.119670 -2.259875 19.899763 -2.070755 -1.933554 -4.622131 -1.689105 6.699347 -1.036625 -3.263013 14.707404 -17.516402 -19.381678 31.864239 -30.021300 -16.577802 5.300345 1.375148 -42.291575 -10.623503 -7.000457 -3.543327 -20.382157 -13.240380 15.331691 -56.811595 -31.168451 23.568896 -0.943185 -12.599509 37.833005 -3.551597 -58.903790 -0.756477 -27.285913 74.310549 -25.895854 0.118217 -9.213095 -1.443368 0.227191 -0.680934 0.109302 21.012283 -54.784704 -11.783236 27.262445 69.634764 24.346629 -17.669382 -15.142861 4.089225 0.249537 0.538080 0.028362
-35.308105 61.427856 21.894436 165.592101 -10.041601 2.794060 5.384772 8.636766 1.798378 0.286798 0.483223 0.126589 0.580359 0.964453 0.203343 4.906025 7.841834 2.152026 -2.092461 20.045723 -2.095393 -1.750444 -4.459225 -1.754346 6.660363 -0.999208 -3.151768 14.470041 -17.631989 -19.110041 32.028559 -29.908996 -16.844484 5.375321 1.520750 -42.238239 -10.536240 -6.974362 -3.547632 -20.324554 -13.407581 15.167047 -56.926955 -30.889805 23.439437 -0.990180 -12.508529 37.564488 -3.500384 -58.914304 -0.764619 -27.356069 74.329291 -25.951361 0.165053 -9.181391 -1.435665 0.186640 -0.708460 0.087974 21.015620 -54.814377 -11.706187 27.240817 69.691021 24.314325 -17.817592 -15.048482 4.107773 0.248251 0.472734 0.040817
